<?xml version="1.0" encoding="UTF-8" standalone="no"?>
<!DOCTYPE svg PUBLIC "-//W3C//DTD SVG 1.1//EN" "http://www.w3.org/Graphics/SVG/1.1/DTD/svg11.dtd">
<svg xmlns="http://www.w3.org/2000/svg" version="1.1" viewBox="0 0 500 500">
<path fill="#1b94d0" d="
  M 222.81 174.19
  Q 229.37 180.13 229.40 189.75
  Q 229.49 225.28 229.50 260.81
  Q 229.50 265.30 228.63 268.07
  Q 227.40 272.00 225.19 274.69
  Q 218.96 282.24 210.00 282.49
  Q 201.56 282.73 195.17 277.41
  Q 188.00 271.43 188.00 260.75
  Q 188.00 226.64 188.00 192.53
  Q 188.00 185.22 189.40 181.66
  Q 191.26 176.93 195.11 173.59
  Q 198.72 170.46 203.61 169.18
  Q 214.22 166.40 222.81 174.19
  Z"
/>
<path fill="#1b93d0" d="
  M 219.79 324.24
  Q 218.07 323.37 219.97 323.05
  Q 232.59 320.90 242.99 313.96
  Q 265.01 299.27 269.76 273.05
  Q 270.44 269.31 270.43 265.50
  Q 270.29 205.73 270.25 190.75
  Q 270.23 185.63 272.16 181.36
  Q 278.08 168.27 292.75 168.41
  Q 301.87 168.50 311.34 168.50
  C 311.70 168.50 312.00 168.80 312.00 169.16
  Q 312.00 217.00 312.00 264.50
  Q 312.00 270.95 311.58 276.31
  Q 311.09 282.52 309.45 287.90
  Q 303.23 308.30 286.25 320.28
  Q 278.17 325.98 268.33 328.91
  Q 243.68 336.26 219.79 324.24
  Z"
/>
</svg>
