<svg width="1200" height="800" viewBox="0 0 1200 800" fill="none" xmlns="http://www.w3.org/2000/svg">
<path d="M426.529 329.255C423.138 316.657 413.204 306.723 400.606 303.331C377.589 297.032 285.524 297.032 285.524 297.032C285.524 297.032 193.459 297.032 170.442 303.089C158.086 306.481 147.91 316.657 144.518 329.255C138.462 352.271 138.462 400 138.462 400C138.462 400 138.462 447.971 144.518 470.745C147.91 483.343 157.844 493.277 170.442 496.669C193.701 502.968 285.524 502.968 285.524 502.968C285.524 502.968 377.589 502.968 400.606 496.911C413.204 493.519 423.138 483.586 426.529 470.987C432.586 447.971 432.586 400.242 432.586 400.242C432.586 400.242 432.829 352.271 426.529 329.255Z" fill="#FF0000"/>
<path d="M256.208 355.906V444.094L332.768 400L256.208 355.906Z" fill="white"/>
<path d="M565.597 484.555C559.782 480.678 555.663 474.621 553.24 466.142C550.818 457.904 549.606 446.76 549.606 433.192V414.537C549.606 400.727 551.06 389.582 553.725 381.102C556.632 372.623 560.993 366.566 566.808 362.689C572.865 358.813 580.618 356.875 590.309 356.875C599.758 356.875 607.511 358.813 613.325 362.689C619.14 366.566 623.259 372.865 625.924 381.102C628.589 389.34 630.042 400.485 630.042 414.537V433.192C630.042 447.002 628.831 457.904 626.166 466.384C623.501 474.621 619.382 480.921 613.568 484.797C607.753 488.674 599.758 490.612 589.824 490.612C579.649 490.369 571.411 488.431 565.597 484.555ZM598.304 464.204C600 460.085 600.727 453.059 600.727 443.61V403.392C600.727 394.185 600 387.402 598.304 383.041C596.608 378.68 593.943 376.741 589.824 376.741C585.948 376.741 583.041 378.922 581.587 383.041C579.891 387.402 579.164 394.185 579.164 403.392V443.61C579.164 453.059 579.891 460.085 581.587 464.204C583.041 468.322 585.948 470.503 590.067 470.503C593.943 470.503 596.608 468.565 598.304 464.204Z" fill="white"/>
<path d="M1012.84 433.434V439.976C1012.84 448.213 1013.08 454.512 1013.57 458.631C1014.05 462.75 1015.02 465.899 1016.72 467.595C1018.17 469.534 1020.59 470.503 1023.99 470.503C1028.35 470.503 1031.25 468.807 1032.95 465.415C1034.65 462.023 1035.37 456.451 1035.61 448.455L1060.57 449.909C1060.81 451.121 1060.81 452.574 1060.81 454.512C1060.81 466.384 1057.66 475.348 1051.12 481.163C1044.58 486.978 1035.37 489.885 1023.5 489.885C1009.21 489.885 999.273 485.282 993.458 476.317C987.644 467.353 984.736 453.543 984.736 434.646V412.114C984.736 392.732 987.644 378.68 993.701 369.715C999.758 360.751 1009.93 356.39 1024.23 356.39C1034.16 356.39 1041.91 358.328 1047.24 361.962C1052.57 365.597 1056.21 371.411 1058.39 378.922C1060.57 386.675 1061.54 397.335 1061.54 410.902V432.95H1012.84V433.434ZM1016.47 379.164C1015.02 381.102 1014.05 384.01 1013.57 388.128C1013.08 392.247 1012.84 398.546 1012.84 407.026V416.233H1034.16V407.026C1034.16 398.789 1033.92 392.489 1033.43 388.128C1032.95 383.767 1031.74 380.86 1030.28 379.164C1028.83 377.468 1026.41 376.499 1023.5 376.499C1020.11 376.257 1017.93 377.226 1016.47 379.164Z" fill="white"/>
<path d="M494.852 431.012L461.902 311.569H490.733L502.362 365.597C505.27 378.922 507.45 390.309 508.904 399.758H509.63C510.6 392.974 512.78 381.829 516.172 365.839L528.286 311.569H557.117L523.683 431.012V488.189H495.094V431.012H494.852Z" fill="white"/>
<path d="M723.804 359.297V488.431H701.03L698.607 472.683H697.88C691.823 484.555 682.374 490.612 670.018 490.612C661.538 490.612 655.239 487.704 651.121 482.132C647.002 476.56 645.064 467.838 645.064 455.724V359.297H674.137V454.028C674.137 459.843 674.864 463.961 676.075 466.384C677.286 468.807 679.467 470.018 682.374 470.018C684.797 470.018 687.22 469.291 689.643 467.595C692.065 466.142 693.761 464.204 694.73 461.781V359.297H723.804Z" fill="white"/>
<path d="M872.804 359.297V488.431H850.03L847.608 472.683H846.881C840.824 484.555 831.375 490.612 819.019 490.612C810.539 490.612 804.24 487.704 800.121 482.132C796.002 476.56 794.064 467.838 794.064 455.724V359.297H823.137V454.028C823.137 459.843 823.864 463.961 825.076 466.384C826.287 468.807 828.468 470.018 831.375 470.018C833.798 470.018 836.22 469.291 838.643 467.595C841.066 466.142 842.762 464.204 843.731 461.781V359.297H872.804Z" fill="white"/>
<path d="M802.786 335.07H773.955V488.189H745.609V335.07H716.778V311.569H802.786V335.07Z" fill="white"/>
<path d="M968.988 379.891C967.292 371.654 964.385 365.839 960.509 362.205C956.632 358.571 951.06 356.632 944.276 356.632C938.946 356.632 933.858 358.086 929.255 361.236C924.652 364.143 921.018 368.262 918.595 373.107H918.352V305.027H890.248V488.189H914.234L917.141 476.075H917.868C920.048 480.436 923.44 483.828 928.044 486.493C932.647 488.916 937.492 490.369 943.065 490.369C952.998 490.369 960.024 485.766 964.627 476.802C969.231 467.838 971.653 453.543 971.653 434.403V414.052C971.411 399.273 970.684 387.886 968.988 379.891ZM942.338 432.465C942.338 441.914 941.853 449.182 941.127 454.512C940.4 459.843 938.946 463.719 937.25 465.899C935.312 468.08 932.889 469.291 929.982 469.291C927.559 469.291 925.379 468.807 923.44 467.595C921.502 466.384 919.806 464.688 918.595 462.508V389.34C919.564 385.948 921.26 383.041 923.683 380.618C926.105 378.437 928.77 377.226 931.435 377.226C934.343 377.226 936.766 378.437 938.219 380.618C939.915 383.041 940.884 386.917 941.611 392.247C942.338 397.819 942.58 405.572 942.58 415.506V432.465H942.338Z" fill="white"/>
</svg>
